<?xml version="1.0" encoding="utf-8"?>
<!-- Generator: Adobe Illustrator 17.0.0, SVG Export Plug-In . SVG Version: 6.00 Build 0)  -->
<!DOCTYPE svg PUBLIC "-//W3C//DTD SVG 1.1//EN" "http://www.w3.org/Graphics/SVG/1.1/DTD/svg11.dtd">
<svg version="1.1" id="Capa_1" xmlns="http://www.w3.org/2000/svg" xmlns:xlink="http://www.w3.org/1999/xlink" x="0px" y="0px"
	 width="35px" height="67,667px" viewBox="0 0 15.317 28.646" enable-background="new 0 0 15.317 28.646" xml:space="preserve">
<path fill="#444444" d="M10.152,8.012c0,1.379-1.117,2.497-2.494,2.497c-1.375,0-2.493-1.118-2.493-2.497
	c0-1.375,1.116-2.491,2.493-2.491C9.035,5.521,10.152,6.637,10.152,8.012z M14.907,8.011c0,0.897-0.17,1.75-0.466,2.542
	C13.49,13.375,7.2,27.881,7.2,27.881S1.278,12.064,0.764,10.25C0.535,9.547,0.409,8.797,0.409,8.012c0-3.999,3.246-7.248,7.25-7.248
	C11.662,0.764,14.908,4.013,14.907,8.011z M12.283,8.04c0-2.554-2.069-4.626-4.625-4.626c-2.554,0-4.624,2.071-4.624,4.625
	s2.07,4.625,4.624,4.625C10.214,12.664,12.283,10.594,12.283,8.04z"/>
</svg>